<svg width="161" height="84" viewBox="0 0 161 84" fill="none" xmlns="http://www.w3.org/2000/svg">
<path d="M1 0.5H160V83.5H1V0.5Z" fill="url(#paint0_linear_2000_14375)"/>
<path d="M1 0.5H160V83.5H1V0.5Z" stroke="#D6DEE5"/>
<path d="M44 24.5H29C28.0054 24.5 27.0516 24.8951 26.3483 25.5983C25.6451 26.3016 25.25 27.2554 25.25 28.25V55.75C25.25 56.7446 25.6451 57.6984 26.3483 58.4016C27.0516 59.1049 28.0054 59.5 29 59.5H44C44.9946 59.5 45.9484 59.1049 46.6517 58.4016C47.3549 57.6984 47.75 56.7446 47.75 55.75V28.25C47.75 27.2554 47.3549 26.3016 46.6517 25.5983C45.9484 24.8951 44.9946 24.5 44 24.5ZM29 27H44C44.3315 27 44.6495 27.1317 44.8839 27.3661C45.1183 27.6005 45.25 27.9185 45.25 28.25V29.5H27.75V28.25C27.75 27.9185 27.8817 27.6005 28.1161 27.3661C28.3505 27.1317 28.6685 27 29 27ZM44 57H29C28.6685 57 28.3505 56.8683 28.1161 56.6339C27.8817 56.3995 27.75 56.0815 27.75 55.75V54.5H45.25V55.75C45.25 56.0815 45.1183 56.3995 44.8839 56.6339C44.6495 56.8683 44.3315 57 44 57Z" fill="url(#paint1_linear_2000_14375)"/>
<path d="M90.7806 46.7195C90.8504 46.7891 90.9057 46.8719 90.9434 46.9629C90.9812 47.0539 91.0006 47.1515 91.0006 47.2501C91.0006 47.3487 90.9812 47.4463 90.9434 47.5373C90.9057 47.6284 90.8504 47.7111 90.7806 47.7807L88.5306 50.0307C88.4257 50.1357 88.292 50.2073 88.1465 50.2362C88.0009 50.2652 87.85 50.2504 87.7129 50.1936C87.5758 50.1368 87.4586 50.0405 87.3762 49.9171C87.2938 49.7936 87.2499 49.6485 87.25 49.5001V48.0001C86.1908 47.9852 85.1499 47.7218 84.2111 47.231C83.2724 46.7402 82.462 46.0358 81.8453 45.1745L77.9341 39.6995C77.4479 39.0199 76.8068 38.4659 76.0638 38.0834C75.3209 37.7009 74.4975 37.501 73.6619 37.5001H71.5C71.3011 37.5001 71.1103 37.4211 70.9697 37.2804C70.829 37.1398 70.75 36.949 70.75 36.7501C70.75 36.5512 70.829 36.3604 70.9697 36.2198C71.1103 36.0791 71.3011 36.0001 71.5 36.0001H73.6619C74.7361 36.001 75.7947 36.2579 76.75 36.7494C77.7052 37.241 78.5295 37.953 79.1547 38.8267L83.0659 44.3017C83.5434 44.9693 84.1704 45.5158 84.897 45.8976C85.6235 46.2793 86.4294 46.4857 87.25 46.5001V45.0001C87.2499 44.8517 87.2938 44.7066 87.3762 44.5831C87.4586 44.4597 87.5758 44.3635 87.7129 44.3066C87.85 44.2498 88.0009 44.235 88.1465 44.264C88.292 44.2929 88.4257 44.3645 88.5306 44.4695L90.7806 46.7195ZM81.9062 40.0314C81.9864 40.0886 82.077 40.1295 82.173 40.1517C82.2689 40.1739 82.3683 40.177 82.4655 40.1609C82.5626 40.1447 82.6557 40.1095 82.7392 40.0574C82.8228 40.0052 82.8953 39.9371 82.9525 39.857L83.065 39.7004C83.5423 39.0323 84.1695 38.4854 84.8962 38.1033C85.6229 37.7212 86.4291 37.5146 87.25 37.5001V39.0001C87.2499 39.1485 87.2938 39.2936 87.3762 39.4171C87.4586 39.5405 87.5758 39.6368 87.7129 39.6936C87.85 39.7504 88.0009 39.7652 88.1465 39.7362C88.292 39.7073 88.4257 39.6357 88.5306 39.5307L90.7806 37.2807C90.8504 37.2111 90.9057 37.1284 90.9434 37.0373C90.9812 36.9463 91.0006 36.8487 91.0006 36.7501C91.0006 36.6515 90.9812 36.5539 90.9434 36.4629C90.9057 36.3718 90.8504 36.2891 90.7806 36.2195L88.5306 33.9695C88.4257 33.8645 88.292 33.7929 88.1465 33.764C88.0009 33.735 87.85 33.7498 87.7129 33.8066C87.5758 33.8634 87.4586 33.9597 87.3762 34.0831C87.2938 34.2066 87.2499 34.3517 87.25 34.5001V36.0001C86.1908 36.015 85.1499 36.2784 84.2111 36.7692C83.2724 37.26 82.462 37.9644 81.8453 38.8257L81.7328 38.9823C81.6751 39.0625 81.6338 39.1533 81.6112 39.2495C81.5887 39.3457 81.5854 39.4454 81.6015 39.5429C81.6176 39.6404 81.6528 39.7337 81.7051 39.8175C81.7574 39.9013 81.8258 39.974 81.9062 40.0314ZM79.0938 43.9689C79.0136 43.9116 78.923 43.8707 78.827 43.8485C78.7311 43.8263 78.6317 43.8232 78.5345 43.8393C78.4374 43.8555 78.3443 43.8907 78.2608 43.9429C78.1772 43.995 78.1047 44.0631 78.0475 44.1432L77.935 44.2998C77.4488 44.9797 76.8076 45.534 76.0645 45.9166C75.3214 46.2993 74.4977 46.4993 73.6619 46.5001H71.5C71.3011 46.5001 71.1103 46.5791 70.9697 46.7198C70.829 46.8604 70.75 47.0512 70.75 47.2501C70.75 47.449 70.829 47.6398 70.9697 47.7804C71.1103 47.9211 71.3011 48.0001 71.5 48.0001H73.6619C74.7361 47.9992 75.7947 47.7423 76.75 47.2508C77.7052 46.7593 78.5295 46.0472 79.1547 45.1735L79.2672 45.017C79.3248 44.9368 79.366 44.8461 79.3884 44.75C79.4109 44.6539 79.4142 44.5543 79.398 44.4569C79.3819 44.3595 79.3468 44.2663 79.2945 44.1826C79.2423 44.0988 79.1741 44.0262 79.0938 43.9689Z" fill="#91A1B7"/>
<path d="M140.75 48.25H139.5V33.25C139.5 32.2554 139.105 31.3016 138.402 30.5983C137.698 29.8951 136.745 29.5 135.75 29.5H113.25C112.255 29.5 111.302 29.8951 110.598 30.5983C109.895 31.3016 109.5 32.2554 109.5 33.25V48.25H108.25C107.918 48.25 107.601 48.3817 107.366 48.6161C107.132 48.8505 107 49.1685 107 49.5V52C107 52.9946 107.395 53.9484 108.098 54.6517C108.802 55.3549 109.755 55.75 110.75 55.75H138.25C139.245 55.75 140.198 55.3549 140.902 54.6517C141.605 53.9484 142 52.9946 142 52V49.5C142 49.1685 141.868 48.8505 141.634 48.6161C141.399 48.3817 141.082 48.25 140.75 48.25ZM122 33.25H127C127.332 33.25 127.649 33.3817 127.884 33.6161C128.118 33.8505 128.25 34.1685 128.25 34.5C128.25 34.8315 128.118 35.1495 127.884 35.3839C127.649 35.6183 127.332 35.75 127 35.75H122C121.668 35.75 121.351 35.6183 121.116 35.3839C120.882 35.1495 120.75 34.8315 120.75 34.5C120.75 34.1685 120.882 33.8505 121.116 33.6161C121.351 33.3817 121.668 33.25 122 33.25ZM139.5 52C139.5 52.3315 139.368 52.6495 139.134 52.8839C138.899 53.1183 138.582 53.25 138.25 53.25H110.75C110.418 53.25 110.101 53.1183 109.866 52.8839C109.632 52.6495 109.5 52.3315 109.5 52V50.75H139.5V52Z" fill="url(#paint2_linear_2000_14375)"/>
<defs>
<linearGradient id="paint0_linear_2000_14375" x1="80.5" y1="0" x2="80.5" y2="107.625" gradientUnits="userSpaceOnUse">
<stop stop-color="white"/>
<stop offset="1" stop-color="white"/>
</linearGradient>
<linearGradient id="paint1_linear_2000_14375" x1="36.5" y1="24.5" x2="36.5" y2="59.5" gradientUnits="userSpaceOnUse">
<stop stop-color="#DEDEDE"/>
<stop offset="1" stop-color="#A6A6A6"/>
</linearGradient>
<linearGradient id="paint2_linear_2000_14375" x1="124.5" y1="29.5" x2="124.5" y2="55.75" gradientUnits="userSpaceOnUse">
<stop stop-color="#0259B0"/>
<stop offset="1" stop-color="#4786C4" stop-opacity="0.95"/>
</linearGradient>
</defs>
</svg>
