<svg width="433" height="433" viewBox="0 0 433 433" fill="none" xmlns="http://www.w3.org/2000/svg">
<path d="M433 1.38169V0H182.064L154.43 27.6338C151.029 31.0349 147.522 34.4359 144.121 37.9433C113.617 68.553 83.1139 99.269 52.5042 129.879C37.093 145.29 21.5756 160.382 6.05817 175.687C6.05817 175.687 6.05817 175.687 5.95189 175.9L0 181.639V432.894H248.598C251.255 430.555 254.124 428.324 256.675 425.773C288.667 393.781 320.658 361.684 352.649 329.692C366.148 316.194 379.858 303.015 393.462 289.517C404.197 278.995 414.719 268.26 425.348 257.632C428.111 254.868 430.449 251.892 433 249.023V96.2931C433 65.0457 433 33.7982 433 2.44453C433 2.01939 433 1.59426 433 1.16912V1.38169ZM176.112 351.374C176.112 356.157 176.112 356.263 171.223 356.263C145.184 356.263 119.144 356.263 93.1046 356.263C88.6406 356.263 84.283 356.582 79.8191 356.582C76.3117 356.582 74.7175 354.988 74.7175 351.268C74.7175 321.402 74.7175 291.536 74.7175 261.671C74.7175 258.163 75.8866 256.356 79.5002 256.463C80.6694 256.463 81.7322 256.463 82.9013 256.463H169.735C175.793 256.463 176.006 256.782 176.006 262.946V306.629C176.006 321.508 176.006 336.494 176.006 351.374H176.112ZM335.538 119.782C335.538 185.253 335.538 250.83 335.538 316.3L250.086 401.859V392.293V182.064H31.5663L114.361 99.0564C115.318 98.8439 116.274 98.7376 117.337 98.7376C177.281 98.7376 237.119 98.7376 296.957 98.7376H335.432V119.782H335.538Z" fill="#E4E4E4"/>
</svg>
