<svg width="28" height="28" viewBox="0 0 28 28" fill="none" xmlns="http://www.w3.org/2000/svg">
<path d="M28 0.0861302V0H11.7756L9.98959 1.78874C9.76692 2.01175 9.54425 2.23323 9.32157 2.45625C7.34669 4.43724 5.37641 6.42439 3.39845 8.40231C2.40487 9.39588 1.39594 10.3771 0.39468 11.3646C0.391608 11.3676 0.388528 11.3707 0.385457 11.3738L0 11.7475V28H16.0755C16.249 27.8477 16.4318 27.7032 16.5945 27.5401C18.6646 25.4715 20.7316 23.3967 22.8033 21.3295C23.6771 20.4575 24.5647 19.6023 25.4416 18.7333C26.1326 18.0489 26.8175 17.3614 27.5009 16.6693C27.676 16.4924 27.8326 16.2986 27.9969 16.1125V6.23829C27.9969 4.21576 27.9969 2.19478 27.9969 0.17226C27.9969 0.143038 27.9969 0.112277 27.9969 0.0861302H28ZM11.3917 22.7184C11.3917 23.0321 11.3855 23.0367 11.0784 23.0367C9.39374 23.0367 7.7091 23.0367 6.026 23.0367C5.74036 23.0367 5.45473 23.0537 5.17063 23.0583C4.94028 23.0629 4.83892 22.9598 4.84046 22.7153C4.8466 20.7835 4.8466 18.8517 4.84046 16.92C4.84046 16.6954 4.91571 16.5801 5.14759 16.5831C5.22131 16.5831 5.29503 16.5754 5.3672 16.5754C7.23919 16.5754 9.11118 16.5754 10.9847 16.5754C11.3778 16.5754 11.3932 16.5924 11.3932 16.9938C11.3932 17.9351 11.3932 18.8764 11.3932 19.8176C11.3932 20.7835 11.3932 21.7494 11.3932 22.7153L11.3917 22.7184ZM21.6991 7.74249H21.6945C21.6945 11.9782 21.6945 16.214 21.6991 20.4482L16.1753 25.9806V25.3607V11.7675H2.03938L7.39583 6.40286C7.45572 6.38901 7.52022 6.38132 7.58932 6.38132C11.4623 6.3844 15.3337 6.38594 19.2067 6.38132V6.37825H21.6976V7.74095L21.6991 7.74249Z" fill="#0041CA"/>
</svg>
